<svg width="600" height="678" viewBox="0 0 600 678" fill="none" xmlns="http://www.w3.org/2000/svg">
<path fill-rule="evenodd" clip-rule="evenodd" d="M413.653 572.793C385.003 580.104 356.354 587.415 327.704 594.726C323.671 595.755 319.637 596.784 315.604 597.814C316.804 554.647 318.005 511.481 319.204 468.315C319.377 462.08 319.551 455.845 319.724 449.611C313.086 456.396 306.118 462.901 299.766 470.046C291.635 479.192 283.816 488.659 275.448 497.534C261.051 512.798 245.926 527.603 229.256 539.39C211.142 552.196 190.246 560.435 169.212 563.28C161.465 564.328 154.45 564.071 146.775 563.138C140.096 562.326 133.418 561.513 126.739 560.701C124.049 560.373 121.358 560.046 118.668 559.719C118.018 559.64 115.903 559.818 115.384 559.307C114.443 558.38 113.952 554.172 113.581 552.835C112.035 547.271 110.5 541.704 108.973 536.132C104.826 520.99 100.736 505.827 96.7869 490.613C93.405 477.589 89.8493 464.508 87.3238 451.211C87.0281 449.653 86.3793 447.612 86.4892 446C86.6484 443.646 85.6934 444.142 88.3515 444.109C94.5999 444.028 101.207 445.801 107.462 446.32C113.903 446.853 120.356 447.171 126.813 447.246C161.006 447.653 200.361 443.326 228.06 417.475C237.347 408.809 246.676 398.79 253.872 387.648C264.02 371.936 269.551 351.017 270.899 331.631C272.415 309.847 269.269 287.38 264.686 266.293C263.758 262.026 263.967 260.429 264.765 255.964C265.426 252.257 266.086 248.55 266.748 244.844C266.932 243.814 267.13 239.49 267.858 238.855C269.134 237.747 275.283 238.964 276.777 238.986L295.303 239.257C307.234 239.43 319.165 239.605 331.096 239.78C337.292 239.87 343.482 241 349.639 241.748C362.839 243.349 376.039 244.952 389.238 246.553C391.883 246.875 394.529 247.196 397.174 247.516C395.479 265.057 393.784 282.597 392.087 300.137C390.824 313.217 395.232 326.186 397.581 338.971C402.874 367.775 408.031 396.999 409.993 426.416C411.84 454.112 411.82 482.106 412.422 509.868C412.877 530.841 413.291 551.816 413.653 572.793Z" fill="#FF5678"/>
<path fill-rule="evenodd" clip-rule="evenodd" d="M229.452 43.4113C229.452 41.801 229.863 40.6734 230.637 39.3389C232.425 41.1523 235.226 50.1452 238.205 44.3394C238.797 43.1848 238.825 38.8841 240.857 40.226C241.812 40.856 241.551 43.8912 241.483 44.92C241.241 48.5824 239.817 53.692 235.771 53.4832C231.642 53.2707 229.341 47.4175 229.452 43.4113Z" fill="black"/>
<path fill-rule="evenodd" clip-rule="evenodd" d="M231.944 35.3661C225.076 36.8451 227.817 29.6315 232.847 29.0329C234.712 28.8109 237.928 28.9274 237.486 32.1423C237.095 34.9856 233.758 34.9747 231.944 35.3661Z" fill="black"/>
<path fill-rule="evenodd" clip-rule="evenodd" d="M212.917 59.1382C210.755 59.3776 207.192 55.818 210.782 55.3842C212.44 55.1843 215.922 58.8038 212.917 59.1382Z" fill="black"/>
<path fill-rule="evenodd" clip-rule="evenodd" d="M589.969 101.318C588.314 102.797 583.356 98.0401 581.735 97.1996C575.423 93.9261 568.167 92.1148 561.385 90.7035C547.957 87.9102 534.195 86.3367 520.562 85.8358C512.246 85.5292 504.374 85.8688 496.149 86.9036C494.101 87.1612 480.248 89.8602 479.909 85.4263C479.313 77.6407 515.958 78.0096 519.448 78.0237C535.313 78.0869 549.643 80.1425 565.054 84.1792C569.222 85.2707 594.858 96.9468 589.969 101.318Z" fill="black"/>
<path fill-rule="evenodd" clip-rule="evenodd" d="M151.873 229.96C143.529 232.842 134.008 232.448 126.18 227.805C124.834 227.008 121.566 225.313 123.298 223.32C125.161 221.178 130.379 224.813 132.411 225.278C142.272 227.537 154.776 223.06 161.761 214.663C165.229 210.497 167.185 205.231 168.011 199.56C168.481 196.325 168.723 192.903 168.553 189.624C168.375 186.15 167.158 182.415 167.972 178.958C171.61 181.476 171.652 188.108 171.912 192.391C172.238 197.791 172.21 202.983 170.911 208.244C168.238 219.077 161.061 226.786 151.873 229.96Z" fill="black"/>
<path fill-rule="evenodd" clip-rule="evenodd" d="M2.78433 518.51C3.04933 519.338 3.29897 520.111 3.58982 521.021C4.71524 518.607 4.71525 518.607 2.78433 518.51ZM13.2719 581.539C17.4456 583.79 22.0959 577.741 24.3177 574.372C28.0212 568.755 29.6693 562.281 31.1292 555.518C32.7442 548.035 34.6105 540.64 36.1116 533.122C36.779 529.77 37.418 526.409 38.1686 523.08C38.7899 520.325 41.1054 515.418 40.131 512.558C38.4829 507.721 30.3884 506.39 30.9402 499.903C31.4467 493.942 40.354 500.308 42.4925 501.572C47.378 504.463 44.8371 500.816 42.4772 498.702C40.6893 497.101 32.371 490.167 36.7248 486.67C39.5509 484.399 45.6975 491.311 48.0397 492.586C50.499 493.922 51.395 493.571 53.3889 491.216C54.8076 489.538 56.9162 487.417 58.0126 485.493C60.7207 480.739 57.0924 471.42 56.5349 465.973C56.4105 464.761 57.1918 458.118 56.4671 457.331C55.5129 456.298 51.4305 457.025 49.9302 456.762C44.5503 455.818 39.2423 455.105 33.8535 454.32C30.2938 453.8 19.7061 450.671 17.6104 454.981C15.9477 458.399 16.4801 464.961 16.4793 468.615C16.4769 476.309 16.4559 483.838 15.833 491.556C14.4708 508.411 13.4488 525.256 12.1368 542.112C11.4993 550.294 10.1808 558.381 9.51992 566.562C9.1095 571.632 8.46155 578.943 13.2719 581.539ZM94.3187 457.063C98.2702 468.603 101.54 480.492 104.958 492.255C106.539 497.694 107.998 503.186 109.602 508.614C111.139 513.814 113.61 518.498 114.878 523.816C117.271 533.859 119.284 543.833 122.118 553.705C122.526 555.127 122.287 558.274 123.019 559.279C123.919 560.515 127.904 560.33 129.315 560.537C135.087 561.386 140.918 562.039 146.742 561.755C141.292 553.733 135.18 546.368 128.914 539.194C123.428 532.912 116.018 525.778 115.125 516.205C113.936 503.486 125.302 506.043 132.374 506.812C142.239 507.889 153.42 512.558 163.293 509.97C156.45 499.165 146.078 491.107 137.488 482.312C134.138 478.881 130.613 475.111 128.902 470.176C128.031 467.66 127.598 464.759 128.189 462.088C128.907 458.846 130.501 458.256 132.813 456.724C119.107 456.724 105.247 456.154 92.1914 450.658C91.6728 453.212 93.5843 454.918 94.3187 457.063ZM155.592 558.996C157.986 562.797 162.297 561.762 165.847 561.522C171.057 561.169 176.253 560.43 181.369 559.211C186.533 557.98 191.713 556.33 196.64 554.122C197.675 553.656 200.9 552.595 201.279 551.14C201.624 549.822 199.634 547.119 199.201 546.113C197.819 542.899 197.134 537.173 200.255 534.881C202.831 532.988 206.637 534.884 209.236 535.778C213.085 537.103 217.678 539.779 221.587 537.744C226.575 535.146 231.515 531.412 236.205 528.142C227.733 519.153 219.412 509.987 210.725 501.276C202.767 493.295 193.181 484.111 188.207 473.118C186.334 468.978 185.121 463.11 187.419 458.798C189.478 454.932 193.632 454.796 197.132 455.15C207.533 456.203 217.779 459.219 228.009 461.468C231.453 462.227 253.61 468.228 253.67 461.7C253.682 460.291 251.388 457.084 250.801 455.965C249.47 453.425 248.11 450.914 246.672 448.455C243.32 442.725 239.677 437.24 236.064 431.735C234.241 428.957 231.911 423.17 228.422 423.787C226.83 424.068 225.236 426.136 223.953 427.206C221.74 429.051 219.446 430.759 217.092 432.345C207.573 438.756 197.062 442.011 186.471 445.034C184.07 445.719 172.601 447.099 171.475 449.864C170.912 451.245 172.207 454.508 172.241 456.003C172.291 458.253 171.866 460.587 170.808 462.494C167.736 468.024 161.016 467.733 156.068 467.569C149.782 467.361 143.346 466.999 137.09 467.895C143.314 474.621 149.773 481.04 156.27 487.399C160.85 491.879 165.952 496.124 169.551 501.765C172.632 506.593 174.924 514.809 170.989 520.012C166.778 525.579 157.286 523.113 151.945 522.164C145.718 521.057 139.547 519.704 133.374 518.26C131.282 517.772 129.123 517.207 126.985 517.075C124.429 516.919 123.492 516.75 125.263 519.521C129.663 526.403 136.282 531.351 140.915 538.071C143.097 541.236 145.641 543.757 147.936 546.794C150.794 550.579 153.038 554.941 155.592 558.996ZM241.247 521.386C244.255 524.958 247.65 519.879 250.088 517.552C253.744 514.061 257.312 510.449 261.021 507.035C268.047 500.571 275.361 494.574 281.967 487.503C284.049 485.273 287.47 482.777 288.104 479.362C288.91 475.006 286.972 471.111 288.953 466.73C292.705 458.432 300.466 465.22 305.528 460.444C308.128 457.991 309.96 454.431 312.009 451.394C314.448 447.779 317.563 444.272 318.967 439.917C320.427 435.389 320.619 433.221 317.9 429.393C314.97 425.27 311.417 421.504 309.066 416.863C307.447 413.666 306.125 408.966 308.67 405.872C310.724 403.372 314.283 404.046 316.943 404.237C320.816 404.517 324.67 404.94 328.476 405.837C331.485 406.546 337.231 408.402 340.119 406.474C346.932 401.927 334.683 390.213 331.97 386.738C325.908 378.972 319.552 371.53 313.248 364.034C307.418 357.103 301.533 350.165 296.058 342.845C291.985 337.396 287.211 329.704 289.395 322.011C291.166 315.775 297.128 315.578 301.872 316.011C308.82 316.647 315.734 317.976 322.652 318.94C327.809 319.659 337.731 321.92 342.13 317.134C346.677 312.189 336.97 297.496 334.461 293.094C329.158 283.792 323.048 275.16 316.717 266.797C313.644 262.735 310.51 258.736 307.375 254.739C304.654 251.266 302.158 246.892 299.031 243.91C295.611 240.649 290.503 241.032 286.312 240.541C281.903 240.024 277.215 239.262 272.784 239.28C268.748 239.297 269.746 243.834 269.576 247.769C269.534 248.711 268.447 257.071 269.672 257.203C269.806 255.341 269.939 253.48 270.073 251.618C273.52 253.27 276.077 256.825 278.75 259.714C281.416 262.597 285.036 265.532 286.162 269.771C289.337 281.738 276.664 277.493 271.354 276.278C272.549 289.871 275.526 303.081 277.167 316.582C277.854 322.239 277.574 327.359 277.038 332.985C276.732 336.192 276.768 339.429 276.433 342.633C276.167 345.175 275.154 348.081 275.559 350.637C276.3 355.313 281.356 360.223 283.603 364.18C286.584 369.431 289.215 375.119 290.594 381.248C293.084 392.311 288.841 400.265 278.93 401.33C274.459 401.81 269.511 401.003 265.082 400.266C261.275 399.632 256.413 396.335 252.941 399.317C251.519 400.537 250.54 402.698 249.293 404.19C247.485 406.352 245.453 408.281 243.457 410.197C241.575 412.005 236.429 415.216 236.935 417.985C237.317 420.073 240.42 423.055 241.471 424.6C242.849 426.624 244.217 428.659 245.547 430.729C248.926 435.984 252.147 441.412 255.062 447.035C258.59 453.839 263.541 465.995 257.576 473.046C254.12 477.129 248.382 476.41 243.977 475.605C237.971 474.51 232.004 473.1 226.105 471.401C220.198 469.7 214.243 468.516 208.267 467.22C203.162 466.116 197.224 464.004 192.121 466.19C207.033 486.461 225.255 502.391 241.247 521.386ZM328.238 427.622C330.156 425.004 332.119 422.097 333.816 419.267C335.379 416.66 335.251 415.524 332.616 414.711C330.976 414.207 329.154 414.7 327.481 414.473C325.739 414.235 324 413.58 322.294 413.131C320.378 412.627 318.228 411.861 316.25 411.867C314.022 411.874 313.802 411.637 314.922 413.977C316.457 417.184 319.43 419.988 321.549 422.66C322.881 424.342 326.07 430.584 328.238 427.622ZM325.773 464.381C326.783 466.971 334.051 465.072 335.22 463.289C337.776 459.391 331.237 450.315 329.518 447.032C326.924 449.04 326.026 451.693 325.872 455.196C325.765 457.622 324.913 462.174 325.773 464.381ZM323.037 593.125C327.38 593.626 333.07 590.702 337.047 589.095C342.556 586.872 348.284 585.285 353.968 583.804C365.384 580.828 377.184 580.414 388.632 577.56C381.357 566.506 372.561 556.982 365.167 546.045C362.486 542.08 358.544 536.397 359.788 530.958C361.007 525.625 365.725 526.803 369.228 528.033C373.927 529.682 378.467 531.978 383.061 533.977C385.234 534.922 394.937 540.363 396.731 536.835C397.942 534.453 391.054 525.583 390.049 524.049C386.298 518.321 382.226 512.893 378.122 507.507C370.466 497.457 361.777 487.175 355.855 475.58C351.416 466.887 349.93 453.168 361.915 453.717C366.865 453.943 371.907 455.735 376.735 456.913C381.196 458.002 387.788 460.408 392.339 459.064C397.133 457.649 391.62 449.295 390.112 446.54C386.925 440.716 383.181 435.276 379.669 429.715C375.892 423.733 371.863 417.879 368.332 411.696C366.134 407.849 362.571 401.137 364.567 396.273C366.859 390.691 374.73 394.142 378.584 394.988C385.884 396.593 393.045 399.265 400.544 399.265C400.469 394.869 396.613 391.005 394.395 387.888C391.063 383.206 387.635 378.673 383.993 374.316C381.432 371.251 378.631 366.261 375.635 363.9C372.569 361.486 370.758 369.119 369.552 371.958C360.768 392.656 351.166 412.949 339.321 431.517C336.936 435.254 333.436 438.273 335.437 443.045C337.518 448.009 340.263 452.353 341.063 457.955C341.655 462.092 341.344 467.845 338.616 470.989C335.972 474.035 332.088 473.345 328.822 474.535C325.354 475.801 326.332 479.392 326.302 482.986C326.248 489.271 326.182 495.554 326.215 501.841C326.244 507.428 326.31 513.013 326.367 518.6C326.427 524.507 327.659 528.694 329.041 534.257C329.759 537.153 330.006 540.147 329.212 543.06C328.528 545.56 327.405 546.04 326.089 547.81C323.523 551.256 324.343 557.804 324.029 562.184C323.803 565.323 320.047 592.781 323.037 593.125ZM333.723 660.293C334.815 661.895 338.735 661.384 340.264 661.501C343.169 661.723 346.08 661.724 348.986 661.908C355.185 662.301 361.305 663.308 367.523 663.435C372.634 663.54 377.93 663.83 382.841 664.238C385.263 664.439 387.982 663.215 390.336 663.788C392.657 664.355 393.543 665.147 396.056 664.912C402.312 664.327 408.714 665.063 414.982 665.243C420.78 665.409 426.629 664.896 432.436 664.806C438.97 664.705 445.518 664.984 452.051 665.063C459.041 665.147 466.177 664.661 473.079 666.213C472.44 662.784 472.484 658.742 470.112 656.178C467.681 653.552 463.653 652.955 460.526 652.526C455.973 651.902 451.458 651.759 446.914 651.534C444.075 651.393 441.343 650.269 438.521 649.894C434.474 649.356 430.118 649.667 426.04 649.59C424.64 649.564 423.711 648.959 422.428 648.731C420.921 648.462 419.449 648.912 417.806 648.444C414.4 647.474 410.926 646.457 407.621 645.159C405.604 644.368 405.687 643.696 404.033 645.534C402.996 646.685 402.361 648.865 401.486 650.22C400.041 652.457 397.456 655.134 395.228 652.44C392.868 649.587 395.397 646.386 394.873 643.425C394.468 641.138 390.748 639.13 388.889 639.993C386.318 641.186 385.557 647.388 382.803 648.09C379.341 648.973 380.276 642.854 380.746 640.577C381.973 634.615 381.534 634.421 377.458 630.452C374.35 627.427 373.482 626.246 369.627 628.507C365.743 630.785 361.499 631.777 357.169 632.321C352.054 632.966 347.283 632.292 342.278 631.098C339.922 630.535 335.331 628.425 333.792 631.313C332.057 634.568 333.842 642.542 333.905 646.309C333.953 649.117 334.099 652.006 333.87 654.807C333.751 656.254 332.841 658.999 333.723 660.293ZM396.465 575.258C400.061 574.894 403.584 573.78 407.169 573.273C408.476 573.089 411.282 573.145 412.362 572.064C413.683 570.744 413.064 570.874 412.795 568.953C411.512 559.823 411.022 550.981 411.211 541.703C411.353 534.759 412.513 523.956 408.97 517.918C404.795 510.802 398.449 505.536 394.215 498.398C391.924 494.536 388.729 484.172 395.98 484.45C398.865 484.559 401.947 486.695 404.747 487.487C408.712 488.606 408.953 487.482 408.603 483.287C407.78 473.441 408.025 463.552 407.164 453.702C406.28 443.576 405.331 433.443 404.358 423.326C403.883 418.411 403.668 413.206 402.851 408.363C402.056 403.656 398.142 406.19 394.716 405.998C385.646 405.49 376.828 398.995 367.712 400.012C375.312 416.664 388.274 429.313 395.648 446.185C398.196 452.015 400.569 461.137 394.285 465.031C387.281 469.37 376.591 463.871 369.385 462.474C366.863 461.986 356.846 458.568 356.38 463.123C356.129 465.576 360.207 471.313 361.226 473.084C363.548 477.125 366.223 480.872 368.735 484.748C373.753 492.49 379.723 499.228 384.927 506.806C389.465 513.416 395.035 519.892 398.693 527.225C402.127 534.107 402.789 546.509 393.133 545.153C383.25 543.765 374.653 534.761 364.578 534.497C369.728 542.421 375.605 549.636 381.32 556.994C384.07 560.535 386.769 564.123 389.377 567.81C391.046 570.169 393.337 575.576 396.465 575.258ZM409.954 503.436C409.736 500.14 410.419 498.299 407.857 496.492C406.205 495.329 402.303 493.52 400.493 494.321C401.177 495.249 409 506.171 409.836 505.291C410.045 504.697 410.084 504.079 409.954 503.436ZM396.316 351.85C395.846 345.51 394.752 339.243 394.517 332.88C394.358 328.579 394.883 322.855 392.388 319.267C389.37 325.864 387.34 332.999 384.324 339.598C383.033 342.422 381.594 345.15 380.258 347.943C379.347 349.854 376.672 353.955 376.883 356.232C377.242 360.12 383.86 365.693 386.003 368.468C390.571 374.384 395.042 380.404 399.707 386.216C399.077 374.698 397.167 363.342 396.316 351.85ZM396.446 248.847C395.185 246.779 386.394 247.757 384.496 247.559C378.525 246.943 372.035 246.393 366.256 244.521C375.432 257.779 383.677 272.133 389.069 288.052C391.114 281.548 392.46 274.777 393.71 268.014C394.345 264.573 394.891 261.119 395.364 257.642C395.578 256.071 397.262 250.187 396.446 248.847ZM368.426 345.874C370.883 347.306 378.337 325.88 378.668 323.505C375.133 324.448 361.06 325.218 360.233 330.426C359.847 332.859 362.252 335.796 363.304 337.555C364.591 339.709 366.393 344.69 368.426 345.874ZM346.093 324.064C340.889 331.681 331.174 330.141 323.909 329.059C318.988 328.324 314.113 327.337 309.207 326.493C304.366 325.658 298.494 324.117 293.799 326.445C301.412 338.945 311.214 349.28 320.469 360.059C325.212 365.586 329.795 371.297 334.357 377.029C338.83 382.653 342.398 389.73 347.144 394.94C351.171 386.349 354.983 377.628 358.866 368.948C360.496 365.302 362.595 362.019 364.269 358.415C366.113 354.444 366.397 352.618 364.044 349.02C360.54 343.662 355.616 336.407 356.321 329.213C357.142 320.812 365.688 319.889 371.284 318.078C374.096 317.168 377.324 316.477 379.895 314.82C383.16 312.711 383.307 309.232 384.388 305.457C385.696 300.887 386.895 297.919 385.515 293.113C384.365 289.113 382.646 285.142 381.057 281.363C377.718 273.418 373.542 266.103 369.115 258.94C366.205 254.233 362.773 244.84 357.568 243.582C353.875 242.691 349.215 243.057 345.427 242.812C341.011 242.528 336.589 242.367 332.171 242.145C323.013 241.681 313.206 240.67 304.094 242.08C314.825 255.631 325.673 268.843 335.22 283.6C341.368 293.104 354.483 311.785 346.093 324.064ZM387.164 221.555C382.188 210.777 377.566 200.118 370.827 190.706C364.999 182.566 359.712 174.073 353.663 166.123C340.974 149.446 324.506 137.122 309.152 124.164C305.679 121.232 301.234 119.634 297.422 117.076C292.705 113.913 287.652 111.273 282.548 109.086C273.288 105.12 262.656 103.097 252.794 103.901C241.896 104.791 233.674 109.287 226.909 119.214C220.275 128.944 219.247 139.685 219.068 151.914C218.983 157.725 218.921 163.57 218.969 169.382C219.018 175.134 219.658 178.771 222.674 183.202C225.157 186.848 230.389 188.689 233.959 190.375C238.815 192.668 243.36 195.224 247.891 198.309C249.851 199.643 254.506 204.665 256.924 204.132C260.486 203.347 261.358 195.963 261.712 192.687C263.039 180.431 262.897 167.898 262.254 155.582C261.926 149.275 259.414 139.799 260.837 133.417C261.428 130.767 262.777 129.826 264.444 132.167C266.505 135.063 267.012 141.86 267.544 145.352C269.421 157.653 269.296 170.018 269.358 182.457C269.382 187.399 271.744 189.962 273.293 194.365C275.274 199.996 276.895 205.871 277.871 211.853C278.438 215.325 278.838 218.863 278.796 222.405C278.772 224.351 277.951 227.445 278.591 229.293C279.833 232.879 287.542 230.874 290.126 230.807C301.644 230.507 313.129 229.791 324.665 229.618C348.019 229.268 371.539 233.318 394.409 238.464C392.04 232.801 389.726 227.104 387.164 221.555ZM377.127 164.012C378.957 164.361 385.103 168.285 386.166 165.798C387.072 163.671 382.586 156.056 381.916 154.028C380.36 149.319 379.983 144.061 379.066 139.145C378.489 136.047 378.434 129.923 376.998 127.163C375.395 124.077 371.654 125.627 368.999 125.72C364.471 125.877 359.897 125.874 355.367 125.855C350.758 125.837 346.153 125.696 341.544 125.712C336.834 125.729 332.181 124.816 327.506 124.816C328.031 126.793 330.223 127.758 331.599 128.688C333.72 130.122 335.505 131.827 337.365 133.699C341.72 138.083 346.064 141.588 349.717 146.819C353.018 151.548 357.628 156.605 361.726 160.406C363.92 162.441 365.42 162.278 368.079 162.252C371.259 162.219 374.024 163.419 377.127 164.012ZM388.41 153.475C389.554 157.57 389.662 158.772 393.372 158.482C398.142 158.106 402.923 157.757 407.7 157.353C418.599 156.432 429.507 154.53 440.408 153.889C449.701 153.341 459.736 152.031 468.971 153.161C473.282 153.689 477.876 152.673 482.271 152.874C487.577 153.118 492.933 153.092 498.01 155C502.241 156.591 505.777 157.451 508.799 161.567C511.846 165.712 513.926 170.936 515.95 175.812C519.876 185.269 522.949 197.614 529.855 204.775C531.599 206.584 534.578 209.655 537.116 209.314C541.292 208.753 540.011 202.295 539.644 199.018C538.409 187.979 534.697 178.438 531.927 167.894C531.099 164.742 529.459 156.417 533.747 155.256C536.833 154.422 541.681 162.35 543.453 164.479C547.358 169.167 551.179 173.717 555.544 177.845C559.148 181.254 562.77 185.019 567.75 184.288C565.367 176.78 562.737 169.512 558.833 162.888C555.482 157.202 549.834 152.085 547.74 145.544C546.162 140.619 547.559 133.899 552.465 138.233C556.726 141.995 560.414 146.6 564.768 150.295C570.484 155.143 576.971 159.162 583.746 161.559C585.988 162.352 589.965 163.888 592.113 161.996C595.317 159.174 592.049 153.287 590.251 150.692C573.383 126.368 545.334 117.644 519.74 115.81C513.069 115.332 506.131 116.1 499.433 116.21C493.077 116.313 487.18 117.223 480.899 118.308C467.861 120.56 454.797 122.392 441.815 124.642C438.34 125.245 434.217 126.437 430.757 126.281C429.332 126.217 428.591 125.77 427.17 126.215C425.957 126.595 425.085 127.353 423.732 127.609C416.04 129.057 408.211 129.622 400.416 129.738C396.666 129.794 392.879 129.711 389.158 129.137C386.967 128.8 384.722 127.736 384.105 130.776C383.639 133.068 385.192 137.412 385.726 139.619C386.816 144.133 387.19 149.104 388.41 153.475ZM248.963 74.8455C250.274 74.904 252.434 75.1332 252.86 73.2201C253.663 69.615 249.537 71.8154 248.773 69.5458C247.921 67.0192 250.826 66.365 252.107 65.9571C254.719 65.1239 254.048 65.3019 254.118 62.1347C254.184 59.2128 254.992 56.5516 256.007 53.9048C257.417 50.2276 257.49 50.4134 254.325 49.991C249.001 49.281 247.84 43.7883 245.87 38.7632C244.655 35.6624 243.308 32.6376 242.552 29.325C242.092 27.3152 242.156 24.121 240.475 22.9886C238.204 21.4588 232.916 23.0406 230.523 23.4081C226.524 24.022 222.319 24.7184 218.494 26.2858C215.214 27.6298 213.966 30.747 211.009 31.2993C209.098 31.6552 197.594 30.8134 199.105 34.9302C200.046 37.4952 204.488 36.0299 206.125 35.9529C208.216 35.8558 210.764 35.4921 212.837 35.9693C214.908 36.4475 215.102 37.3528 215.911 39.7609C213.97 39.6484 206.71 38.3813 205.124 40.0486C203.717 41.5274 204.756 43.1485 206.171 43.6922C208.933 44.7533 212.665 42.6944 215.564 43.5795C217.627 44.2097 217.484 44.2953 218.334 46.715C218.776 47.9773 219.281 49.2684 219.469 50.626C220.534 58.2939 214.514 52.3414 212.01 50.6433C207.431 47.5367 202.467 48.1168 203.356 55.5808C203.65 58.0505 204.79 60.2114 206.254 61.9923C208.317 64.5024 208.852 64.9758 208.958 68.7683C209.049 72.0314 208.749 75.5229 209.738 78.6567C210.829 82.1076 213.152 85.049 214.965 87.9951C217.144 91.5337 219.398 95.0289 221.501 98.6307C222.406 100.183 223.699 104.089 225.443 104.607C227.087 105.093 229.633 102.014 230.994 101.133C234.292 98.9967 237.913 97.6062 241.303 95.6949C238.463 92.745 235.934 89.3989 233.152 86.4358C230.98 84.1217 229.855 83.6811 230.572 79.7737C232.18 71.0088 243.469 74.6059 248.963 74.8455ZM206.251 259.028C197.274 269.182 183.925 275.529 171.782 278.083C159.062 280.76 144.556 282.743 132.165 277.567C119.459 272.259 107.579 264.628 96.8224 255.132C95.4999 253.964 80.6835 237.068 79.4902 238.4C83.8917 246.098 88.5106 253.606 93.1763 261.086C95.4684 264.759 103.395 277.406 98.8373 281.981C95.8182 285.011 90.6839 280.129 88.2052 278.171C82.2387 273.458 75.592 270.92 68.3394 270.92C71.6906 278.104 76.7837 284.465 79.5088 292.053C80.7958 295.639 80.1406 295.379 77.2321 294.404C73.5924 293.186 69.4648 291.775 65.6668 291.575C63.9007 291.482 60.3143 292.389 60.0154 295.083C59.7302 297.66 64.4145 302.522 65.7217 304.367C70.5135 311.135 75.3973 317.556 81.3209 323.012C92.6924 333.484 106.191 340.236 119.93 345.252C133.966 350.374 148.968 351.918 163.317 347.794C170.426 345.751 176.947 342.979 183.315 338.842C186.198 336.97 189.23 336.121 192.003 333.92C194.883 331.634 197.802 329.353 200.742 327.177C206.797 322.695 210.55 318.187 214.776 311.452C216.475 308.744 218.807 306.736 220.426 304.069C222.211 301.131 224.046 298.137 225.711 295.045C233.383 280.784 240.901 265.454 245.374 249.376C247.68 241.087 249.247 232.56 251.182 224.149C251.848 221.255 254.305 215.689 253.792 212.749C253.297 209.913 249.455 208.763 247.554 207.561C242.001 204.051 236.429 200.936 231.011 197.205C223.526 192.05 224.852 202.621 224.366 208.725C222.926 226.87 217.705 246.074 206.251 259.028ZM269.562 265.965C271.141 267.546 275.137 268.527 277.158 267.805C275.166 264.34 272.097 262.067 269.514 259.278C269.233 261.195 267.985 264.386 269.562 265.965ZM259.924 389.258C263.559 389.568 267.353 390.843 270.957 390.876C274.172 390.906 278.24 391.212 281.364 390.406C289.982 388.181 284.886 379.074 281.887 373.13C280.228 369.843 278.131 366.902 276.402 363.672C275.984 362.894 274.826 359.716 273.9 359.609C272.539 359.452 272.116 362.059 271.46 363.654C269.684 367.975 268.043 372.439 266.028 376.617C264.002 380.819 261.172 384.589 259.924 389.258ZM166.696 453.204C165.951 448.37 153.843 453.279 151.103 453.855C150.317 454.022 140.83 455.372 140.916 456.335C144.056 456.605 167.622 459.22 166.696 453.204ZM2.03862 561.118C0.183647 562.061 0.249089 555.166 0.16345 554.252C-0.00944371 552.408 -0.226765 549.09 0.575495 547.471C1.16446 546.283 1.33736 546.887 1.65325 546.574C4.24343 544.009 1.11599 542.911 0.533482 540.867C0.354124 540.239 0.337149 538.508 0.605377 537.983C1.36966 536.48 1.58135 537.604 2.49025 536.974C3.09942 536.551 4.33553 537.595 3.97762 535.669C3.68273 534.08 2.64214 535.055 2.12103 534.558C0.139216 532.667 0.341197 530.185 0.658707 527.161C0.96006 524.289 1.25091 521.217 1.9748 518.498C2.34563 517.103 2.85219 517.732 2.8118 516.084C2.79079 515.224 1.67183 514.374 1.63466 513.293C1.59023 511.948 2.65749 509.792 2.71728 508.375C2.79645 506.514 2.81099 504.898 2.63325 503.14C2.52418 502.062 2.28019 501.67 2.22929 500.359C2.18163 499.124 2.4135 497.677 2.43532 496.389C2.49833 492.735 2.91602 489.061 3.4654 485.566C3.78857 485.018 4.04225 484.428 4.22888 483.797C4.10042 483.142 3.88552 482.528 3.58497 481.955C3.50176 480.284 3.52923 478.652 3.5462 476.957C3.57852 473.812 3.06468 470.829 2.90714 467.729C2.86109 466.808 2.55085 465.272 3.09861 464.421C3.51631 463.773 4.9762 463.933 5.13617 463.31C5.59749 461.525 4.21676 462.59 3.91783 461.686C3.67788 460.962 3.79989 460.008 3.7603 459.28C3.64961 457.31 6.07739 443.923 8.18039 445.663C7.34259 444.97 8.98669 440.361 9.52072 439.58C11.5033 436.68 12.6869 439.965 14.2955 442.005C16.5455 444.861 18.5047 443.024 21.4278 442.379C25.0472 441.582 29.0238 441.863 32.6925 441.956C36.4534 442.051 40.2676 442.298 44.0131 442.685C48.0462 443.101 51.9524 444.525 56.0259 444.453C62.0635 444.347 68.1802 444.512 74.2121 444.26C75.4199 444.209 78.3414 444.356 78.8471 442.563C79.0378 441.89 77.9487 440.476 77.7847 439.733C77.468 438.307 77.4462 436.435 77.9843 435.039C79.6106 430.827 82.9949 434.266 85.3791 435.797C88.9711 438.101 92.6932 440.064 96.6608 441.311C112.484 446.281 131.151 446.004 147.308 443.658C163.715 441.275 179.935 435.506 195.932 430.781C210.538 426.467 224.019 416.901 235.23 405.196C246.659 393.265 255.679 376.716 261.324 360.103C267.613 341.596 263.038 322.964 262.878 304.034C262.799 294.594 261 285.381 260.508 275.971C260.03 266.844 260.699 258.28 263.043 249.346C263.641 247.071 264.481 244.785 264.916 242.457C265.32 240.301 264.606 238.571 264.843 236.538C265.352 232.185 269.471 232.627 271.273 229.391C272.904 226.462 271.224 221.903 270.646 218.761C269.642 213.306 268.394 207.917 267.245 202.502C266.059 205.727 264.951 208.943 264.235 212.36C264.05 213.235 264.034 214.78 263.521 215.558C263.15 216.12 262.214 216.047 261.921 216.566C260.932 218.315 261.046 220.069 260.874 222.318C260.541 226.681 259.936 230.996 259.322 235.314C257.257 249.818 255.685 264.113 250.805 277.805C241.812 303.036 229.664 326.515 211.699 344.412C203.558 352.523 193.204 357.567 183.35 361.84C171.597 366.937 160.416 369.699 147.798 368.377C135.89 367.129 123.989 362.811 113.081 357.213C102.337 351.698 92.2504 346.844 83.0773 337.959C73.2757 328.465 63.4862 317.006 56.7442 304.299C54.2857 299.666 49.9084 290.106 50.9813 284.303C52.3572 276.861 62.1467 281.768 65.6821 283.309C62.7074 277.624 54.7438 267.499 58.7034 260.407C64.4824 250.058 79.609 260.538 85.8033 264.374C82.6112 256.792 77.7322 250.422 74.2743 243.024C72.5615 239.358 67.8255 224.451 74.7833 223.644C76.8895 223.4 79.1258 226.208 80.614 227.616C83.5023 230.35 86.368 233.115 89.2329 235.882C95.4942 241.932 102.103 247.077 109.314 251.458C123.746 260.225 137.706 264.881 154.098 263.016C168.064 261.429 183.464 256.471 194.325 245.72C200.846 239.264 206.032 232.123 209.381 222.845C213.081 212.6 215.439 201.346 218.027 190.657C214.015 189.451 211.204 190.15 211.978 184.577C212.906 177.898 212.702 171.139 212.736 164.359C212.807 150.305 213.029 136.096 216.794 122.608C217.464 120.208 218.054 117.735 219.209 115.574C220.632 112.909 221.954 112.512 220.121 109.607C216.593 104.013 212.929 99.2316 210.312 92.8035C208.951 89.4602 207.687 86.1858 206.01 83.0604C203.259 77.936 199.662 74.1767 196.132 69.7372C192.08 64.6429 188.905 59.8372 186.823 53.2929C185.849 50.2383 184.522 47.1989 184.019 43.9721C183.42 40.1246 184.043 36.1887 184.327 32.3393C185.267 19.5693 188.94 9.26417 199.693 4.27478C208.43 0.21952 218.475 -1.52675 227.636 1.60873C238.719 5.40334 243.972 16.759 249.25 27.7482C250.739 30.847 251.655 34.1259 253.005 37.271C254.389 40.4951 255.825 40.4999 258.374 41.8083C263.427 44.4002 262.998 51.8767 260.805 56.7911C258.018 63.0361 258.582 70.2711 256.18 76.7907C253.72 83.466 249.901 85.3264 244.079 86.8225C246.299 88.881 248.323 91.5733 251.152 92.4535C254.586 93.5214 258.747 92.5026 262.303 92.5611C269.684 92.6827 277.148 93.8506 284.163 96.6062C291.051 99.3109 297.225 103.641 303.628 107.515C306.556 109.286 309.285 111.812 312.63 112.327C315.876 112.826 319.145 111.892 322.408 112.381C329.565 113.456 337.411 112.101 344.709 111.916C352.57 111.715 360.458 111.844 368.303 111.172C371.692 110.882 375.039 110.466 378.44 110.811C381.53 111.124 383.373 110.275 386.045 112.744C387.82 114.386 389.237 118.404 391.329 118.951C393.561 119.535 397.957 117.901 400.16 117.513C407.568 116.208 415.035 114.484 422.398 112.893C425.847 112.147 429.099 110.789 432.579 110.088C436.17 109.363 439.9 109.128 443.447 108.196C449.188 106.687 455.387 106.125 461.373 105.161C468.383 104.032 475.592 101.652 482.658 101.351C512.233 100.091 545.383 98.0401 571.607 117.188C577.763 121.684 584.091 127.425 588.834 133.856C593.191 139.764 598.542 147.581 599.653 155.454C600.646 162.481 599.922 174.792 591.875 174.878C584.028 174.962 575.964 169.491 569.212 165.439C572.095 173.513 580.86 190.804 573.252 198.644C565.401 206.734 550.946 189.179 545.761 183.543C546.785 192.17 554.102 223.518 540.256 224.004C526.742 224.477 518.901 205.025 514.086 193.477C511.545 187.38 509.648 180.217 505.522 175.256C501.373 170.267 495.621 170.432 490.005 169.795C476.354 168.245 462.779 168.165 449.049 167.781C431.673 167.296 414.607 170.639 397.208 168.75C397.427 172.668 396.153 179.798 392.754 181.298C387.746 183.508 381.604 180.331 376.477 180.331C376.822 182.726 379.742 185.25 380.973 187.058C383.177 190.299 385.075 193.775 386.849 197.354C390.315 204.345 394.002 211.347 396.462 218.924C397.7 222.737 398.757 226.668 399.648 230.608C400.161 232.874 400.152 236.261 401.191 238.264C402.481 240.754 404.464 239.316 406.099 241.269C408.455 244.085 405.995 245.566 405.253 248.048C404.447 250.734 405.459 255.283 405.152 258.235C404.692 262.667 404.205 267.13 403.575 271.533C402.424 279.582 399.98 287.027 398.346 294.885C396.795 302.338 400.994 310.22 402.378 317.429C403.988 325.799 404.921 334.266 406.573 342.618C408.317 351.437 409.126 360.519 410.329 369.452C411.504 378.18 413.195 386.802 414.343 395.536C416.53 412.18 417.919 429.13 419.643 445.842C420.548 454.602 421.242 463.476 421.309 472.304C421.372 480.571 422.37 488.643 422.516 496.895C422.671 505.64 422.759 514.392 423.083 523.131C423.402 531.775 422.484 540.381 422.148 549.012C421.988 553.126 421.87 557.247 421.923 561.365C421.965 564.841 422.782 568.909 422.044 572.311C420.585 579.036 412.48 583.076 407.391 585.033C401.171 587.425 394.605 589.078 388.237 590.846C385.135 591.707 381.993 592.44 378.838 592.981C377.612 593.191 376.19 593.106 375.045 593.715C373.319 594.632 373.659 594.17 373.568 596.462C373.42 600.165 374.349 604.22 374.832 607.849C375.277 611.191 374.71 616.685 375.817 619.68C377.075 623.087 385.945 625.877 388.115 623.566C389.646 621.937 390.084 618.856 391.888 617.484C394.485 615.506 395.678 618.276 395.665 621.253C395.656 623.495 394.203 626.201 395.95 627.838C397.463 629.259 400.655 628.515 402.117 627.346C404.554 625.397 409.61 613.335 410.847 623.595C411.138 626.012 410.245 628.827 412 630.662C413.645 632.381 417.61 632.304 419.685 632.611C422.996 633.1 425.894 633.264 429.236 633.181C432.967 633.087 436.492 634.11 440.159 634.302C445.874 634.601 451.609 635.505 457.453 635.636C463.419 635.772 469.92 637.592 474.508 642.318C479.777 647.744 478.692 654.454 477.687 661.722C477.024 666.529 482.275 671.721 476.975 675.925C474.848 677.61 471.316 677.255 468.871 677.28C464.693 677.326 460.56 676.757 456.377 677.029C425.906 679.01 395.318 677.533 364.854 676.36C357.737 676.086 350.345 676.467 343.288 675.462C340.145 675.015 337.024 674.377 333.874 673.983C331.178 673.647 327.96 674.201 325.386 673.179C319.013 670.647 325.833 662.946 326.341 658.547C327.329 650.008 326.91 640.961 326.958 632.357C327.008 623.21 326.958 614.062 326.958 604.915C323.569 605.191 314.058 608.122 311.401 604.725C309.205 601.916 312.942 596.052 313.126 592.681C313.873 578.936 313.621 565.177 314.509 551.42C315.425 537.232 315.312 523.171 315.693 508.982C316.1 493.825 317.021 478.724 317.021 463.544C307.539 475.266 298.482 488.139 287.938 498.589C283.422 503.064 278.502 506.937 273.786 511.11C268.471 515.812 263.524 521.043 258.24 525.789C248.411 534.62 236.723 539.783 226.338 547.634C215.841 555.571 204.639 562.108 192.555 566.036C179.344 570.331 165.336 571.759 151.666 570.935C145.107 570.541 138.582 569.556 132.123 568.181C129.43 567.606 126.765 566.858 124.071 566.295C120.261 565.498 118.404 566.242 114.837 567.057C110.151 568.128 108.983 560.133 107.594 556.29C105.031 549.2 103.922 541.454 101.654 534.204C97.6885 521.524 94.0343 508.988 90.5255 496.094C89.7289 493.169 89.1989 488.094 86.2113 487.683C84.1947 487.405 80.7215 490.031 78.7445 490.756C75.3068 492.017 72.0485 492.584 68.4678 492.687C65.4503 492.774 65.0899 494.095 63.2034 496.602C61.4737 498.9 58.3511 500.218 58.9385 503.556C59.2859 505.532 61.0835 507.058 61.4196 509.291C62.625 517.303 55.7375 510.376 53.3162 508.626C51.8498 512.402 62.9288 516.595 58.8916 521.943C56.9146 524.561 52.7927 520.584 50.8254 519.567C46.2372 517.195 45.54 523.645 44.3176 527.824C42.0757 535.497 40.5746 543.549 38.8561 551.4C37.2007 558.965 35.8547 566.695 33.2427 573.916C30.9151 580.353 26.861 584.555 23.9662 590.368C22.5411 593.227 20.9681 595.288 17.8883 595.423C15.8047 595.516 11.9509 594.559 9.98286 593.631C8.12465 592.754 6.1097 590.087 4.81058 588.413C3.0065 586.089 3.3628 583.84 1.90209 580.996C1.96511 582.424 2.23818 583.754 2.30362 585.149C-0.362501 582.698 2.29554 578.843 1.8116 575.736C1.65891 574.752 0.790402 573.928 0.741119 572.895C0.719305 572.472 1.49328 571.499 1.54579 570.909C1.60719 570.212 1.65568 568.183 1.48601 567.665C1.36321 567.294 0.337161 565.399 0.359783 565.742C0.344432 565.491 -0.0183255 565.095 0.176382 564.267C0.470463 563.016 2.17435 562.794 2.03862 561.118Z" fill="black"/>
</svg>
